<?xml version="1.0" standalone="no"?>
<!DOCTYPE svg PUBLIC "-//W3C//DTD SVG 20010904//EN"
 "http://www.w3.org/TR/2001/REC-SVG-20010904/DTD/svg10.dtd">
<svg version="1.0" xmlns="http://www.w3.org/2000/svg"
 width="786.000000pt" height="1280.000000pt" viewBox="0 0 786.000000 1280.000000"
 preserveAspectRatio="xMidYMid meet">
<metadata>
Created by potrace 1.15, written by Peter Selinger 2001-2017
</metadata>
<g transform="translate(0.000000,1280.000000) scale(0.100000,-0.100000)"
fill="#6b7280" stroke="none">
<path d="M3945 12086 c-11 -16 -22 -88 -36 -227 -24 -253 -27 -269 -43 -269
-15 0 -66 95 -151 283 -59 131 -88 167 -131 167 -37 0 -67 -36 -61 -74 3 -17
44 -116 91 -221 95 -207 105 -235 85 -235 -20 0 -92 46 -247 156 -113 81 -152
104 -178 104 -58 0 -90 -54 -57 -99 11 -14 80 -70 154 -123 241 -176 245 -179
223 -191 -13 -8 -76 -6 -224 7 -113 10 -220 17 -239 15 -70 -8 -93 -92 -33
-123 23 -12 185 -31 332 -39 33 -1 2 -9 -118 -31 -406 -70 -762 -188 -1114
-367 -372 -190 -664 -404 -968 -708 -435 -436 -743 -937 -935 -1521 -21 -63
-39 -117 -41 -119 -2 -2 -59 -14 -126 -26 l-123 -21 -3 -438 -2 -438 37 6 c21
4 46 10 57 13 17 5 18 -1 14 -83 -6 -126 9 -448 27 -584 115 -848 475 -1591
1066 -2195 l147 -150 -40 -70 c-81 -140 -248 -494 -316 -670 -153 -394 -270
-829 -332 -1225 -49 -317 -67 -504 -79 -815 -8 -204 -10 -226 -36 -300 -34
-95 -44 -232 -25 -328 55 -281 317 -497 605 -497 132 0 290 56 383 135 l42 37
-2 -331 -3 -332 -78 -33 c-43 -19 -111 -54 -150 -78 l-72 -43 2380 -3 c1309
-2 2517 0 2684 4 l304 6 -61 39 c-34 22 -101 57 -149 78 l-88 38 -3 328 -2
327 42 -37 c93 -79 251 -135 383 -135 288 0 550 216 605 497 19 96 9 233 -25
328 -26 74 -28 96 -36 300 -12 311 -30 498 -79 815 -63 408 -183 844 -341
1246 -73 185 -228 513 -312 659 l-34 60 146 150 c591 605 951 1347 1066 2195
18 135 33 458 27 581 l-4 87 44 -9 c23 -4 49 -8 56 -9 10 0 12 91 10 437 l-3
437 -124 20 -123 21 -63 180 c-70 203 -93 258 -169 418 -262 554 -699 1075
-1214 1451 -385 281 -887 511 -1354 620 -19 4 -28 13 -28 25 0 30 -11 51 -30
61 -10 6 -106 19 -212 30 -106 12 -211 25 -232 31 -38 10 -38 11 -20 29 10 10
96 53 189 95 94 43 182 86 197 96 35 25 50 69 34 100 -23 45 -78 33 -301 -68
-232 -105 -245 -110 -245 -90 0 8 63 102 140 210 77 108 145 208 150 223 23
59 -28 109 -88 88 -16 -6 -73 -76 -161 -198 -75 -105 -142 -192 -148 -194 -18
-5 -17 106 3 303 16 164 15 193 -12 219 -25 25 -81 21 -99 -8z"/>
</g>
</svg>
